<svg xmlns="http://www.w3.org/2000/svg" viewBox="0 0 2400 500" preserveAspectRatio="xMidYMax slice">
  <defs>
    <style>
      .hill-ground { fill: var(--hill-ground, #3a4a6a); }
      .branch      { stroke: var(--branch, #3a2a1a); }
      .trunk       { fill: var(--trunk, #3a2a1a); }
      .snow        { fill: var(--snow, #e8ecff); }
    </style>
    <clipPath id="hillClip">
      <path d="M0,420 Q300,360 600,415 T1200,410 T1800,415 T2400,410 L2400,500 L0,500 Z"/>
    </clipPath>
  </defs>
  <path class="hill-ground" d="M0,420 Q300,360 600,415 T1200,410 T1800,415 T2400,410 L2400,500 L0,500 Z"/>
  <g>
    <g transform="translate(200, 395)">
      <rect class="trunk" x="-1.5" y="-12" width="3" height="12" rx="0.5"/>
      <line class="branch" x1="0" y1="-12" x2="-8" y2="-20" stroke-width="1.5" stroke-linecap="round"/>
      <line class="branch" x1="0" y1="-12" x2="8" y2="-20" stroke-width="1.5" stroke-linecap="round"/>
      <line class="branch" x1="-4" y1="-17" x2="-10" y2="-24" stroke-width="1" stroke-linecap="round"/>
      <line class="branch" x1="4" y1="-17" x2="10" y2="-24" stroke-width="1" stroke-linecap="round"/>
      <line class="branch" x1="-8" y1="-20" x2="-12" y2="-26" stroke-width="0.8" stroke-linecap="round"/>
      <line class="branch" x1="8" y1="-20" x2="12" y2="-26" stroke-width="0.8" stroke-linecap="round"/>
    </g>
    <g transform="translate(400, 410)">
      <rect class="trunk" x="-1.5" y="-12" width="3" height="12" rx="0.5"/>
      <line class="branch" x1="0" y1="-12" x2="-8" y2="-20" stroke-width="1.5" stroke-linecap="round"/>
      <line class="branch" x1="0" y1="-12" x2="8" y2="-20" stroke-width="1.5" stroke-linecap="round"/>
      <line class="branch" x1="-4" y1="-17" x2="-10" y2="-24" stroke-width="1" stroke-linecap="round"/>
      <line class="branch" x1="4" y1="-17" x2="10" y2="-24" stroke-width="1" stroke-linecap="round"/>
      <line class="branch" x1="-8" y1="-20" x2="-12" y2="-26" stroke-width="0.8" stroke-linecap="round"/>
      <line class="branch" x1="8" y1="-20" x2="12" y2="-26" stroke-width="0.8" stroke-linecap="round"/>
    </g>
    <g transform="translate(700, 440)">
      <rect class="trunk" x="-1.5" y="-10" width="3" height="10" rx="0.5"/>
      <line class="branch" x1="0" y1="-10" x2="-7" y2="-18" stroke-width="1.5" stroke-linecap="round"/>
      <line class="branch" x1="0" y1="-10" x2="7" y2="-18" stroke-width="1.5" stroke-linecap="round"/>
      <line class="branch" x1="-4" y1="-15" x2="-9" y2="-21" stroke-width="1" stroke-linecap="round"/>
      <line class="branch" x1="4" y1="-15" x2="9" y2="-21" stroke-width="1" stroke-linecap="round"/>
    </g>
    <g transform="translate(1000, 445)">
      <rect class="trunk" x="-1.5" y="-10" width="3" height="10" rx="0.5"/>
      <line class="branch" x1="0" y1="-10" x2="-7" y2="-18" stroke-width="1.5" stroke-linecap="round"/>
      <line class="branch" x1="0" y1="-10" x2="7" y2="-18" stroke-width="1.5" stroke-linecap="round"/>
      <line class="branch" x1="-4" y1="-15" x2="-9" y2="-21" stroke-width="1" stroke-linecap="round"/>
      <line class="branch" x1="4" y1="-15" x2="9" y2="-21" stroke-width="1" stroke-linecap="round"/>
    </g>
    <g transform="translate(1300, 395)">
      <rect class="trunk" x="-1.5" y="-12" width="3" height="12" rx="0.5"/>
      <line class="branch" x1="0" y1="-12" x2="-8" y2="-20" stroke-width="1.5" stroke-linecap="round"/>
      <line class="branch" x1="0" y1="-12" x2="8" y2="-20" stroke-width="1.5" stroke-linecap="round"/>
      <line class="branch" x1="-4" y1="-17" x2="-10" y2="-24" stroke-width="1" stroke-linecap="round"/>
      <line class="branch" x1="4" y1="-17" x2="10" y2="-24" stroke-width="1" stroke-linecap="round"/>
      <line class="branch" x1="-8" y1="-20" x2="-12" y2="-26" stroke-width="0.8" stroke-linecap="round"/>
      <line class="branch" x1="8" y1="-20" x2="12" y2="-26" stroke-width="0.8" stroke-linecap="round"/>
    </g>
    <g transform="translate(1650, 400)">
      <rect class="trunk" x="-1.5" y="-12" width="3" height="12" rx="0.5"/>
      <line class="branch" x1="0" y1="-12" x2="-8" y2="-20" stroke-width="1.5" stroke-linecap="round"/>
      <line class="branch" x1="0" y1="-12" x2="8" y2="-20" stroke-width="1.5" stroke-linecap="round"/>
      <line class="branch" x1="-4" y1="-17" x2="-10" y2="-24" stroke-width="1" stroke-linecap="round"/>
      <line class="branch" x1="4" y1="-17" x2="10" y2="-24" stroke-width="1" stroke-linecap="round"/>
      <line class="branch" x1="-8" y1="-20" x2="-12" y2="-26" stroke-width="0.8" stroke-linecap="round"/>
      <line class="branch" x1="8" y1="-20" x2="12" y2="-26" stroke-width="0.8" stroke-linecap="round"/>
    </g>
    <g transform="translate(2050, 450)">
      <rect class="trunk" x="-1.5" y="-10" width="3" height="10" rx="0.5"/>
      <line class="branch" x1="0" y1="-10" x2="-7" y2="-18" stroke-width="1.5" stroke-linecap="round"/>
      <line class="branch" x1="0" y1="-10" x2="7" y2="-18" stroke-width="1.5" stroke-linecap="round"/>
      <line class="branch" x1="-4" y1="-15" x2="-9" y2="-21" stroke-width="1" stroke-linecap="round"/>
      <line class="branch" x1="4" y1="-15" x2="9" y2="-21" stroke-width="1" stroke-linecap="round"/>
    </g>
  </g>
  <g clip-path="url(#hillClip)">
    <ellipse class="snow" cx="300" cy="370" rx="40" ry="10"/>
    <ellipse class="snow" cx="1500" cy="385" rx="35" ry="8"/>
    <ellipse class="snow" cx="400" cy="375" rx="20" ry="6"/>
    <ellipse class="snow" cx="1300" cy="398" rx="25" ry="6"/>
    <ellipse class="snow" cx="1700" cy="405" rx="20" ry="5"/>
  </g>
</svg>
