<svg xmlns="http://www.w3.org/2000/svg" viewBox="0 0 2400 500" preserveAspectRatio="xMidYMax slice">
  <defs>
    <style>
      .hill-ground   { fill: var(--hill-ground, #3a5829); }
      .trunk         { fill: var(--trunk, #4a3010); }
      .foliage-light { fill: var(--foliage-light, #3a7a2a); }
      .foliage-dark  { fill: var(--foliage-dark, #2a6a1a); }
    </style>
  </defs>
  <path class="hill-ground" d="M0,410 Q300,350 600,405 T1200,400 T1800,405 T2400,400 L2400,500 L0,500 Z"/>
  <g>
    <g transform="translate(200, 390)">
      <rect class="trunk" x="-1.5" y="-14" width="3" height="14" rx="0.5"/>
      <circle class="foliage-light" cx="0" cy="-20" r="10"/>
      <circle class="foliage-dark" cx="-6" cy="-16" r="8"/>
      <circle class="foliage-dark" cx="6" cy="-16" r="8"/>
      <circle class="foliage-light" cx="0" cy="-12" r="7"/>
    </g>
    <g transform="translate(400, 400)">
      <rect class="trunk" x="-1.5" y="-14" width="3" height="14" rx="0.5"/>
      <circle class="foliage-light" cx="0" cy="-20" r="10"/>
      <circle class="foliage-dark" cx="-6" cy="-16" r="8"/>
      <circle class="foliage-dark" cx="6" cy="-16" r="8"/>
      <circle class="foliage-light" cx="0" cy="-12" r="7"/>
    </g>
    <g transform="translate(700, 450)">
      <rect class="trunk" x="-1.5" y="-12" width="3" height="12" rx="0.5"/>
      <circle class="foliage-light" cx="0" cy="-18" r="9"/>
      <circle class="foliage-dark" cx="-5" cy="-14" r="7"/>
      <circle class="foliage-dark" cx="5" cy="-14" r="7"/>
    </g>
    <g transform="translate(1000, 430)">
      <rect class="trunk" x="-1.5" y="-12" width="3" height="12" rx="0.5"/>
      <circle class="foliage-light" cx="0" cy="-18" r="9"/>
      <circle class="foliage-dark" cx="-5" cy="-14" r="7"/>
      <circle class="foliage-dark" cx="5" cy="-14" r="7"/>
    </g>
    <g transform="translate(1300, 390)">
      <rect class="trunk" x="-1.5" y="-14" width="3" height="14" rx="0.5"/>
      <circle class="foliage-light" cx="0" cy="-20" r="10"/>
      <circle class="foliage-dark" cx="-6" cy="-16" r="8"/>
      <circle class="foliage-dark" cx="6" cy="-16" r="8"/>
      <circle class="foliage-light" cx="0" cy="-12" r="7"/>
    </g>
    <g transform="translate(1650, 390)">
      <rect class="trunk" x="-1.5" y="-14" width="3" height="14" rx="0.5"/>
      <circle class="foliage-light" cx="0" cy="-20" r="10"/>
      <circle class="foliage-dark" cx="-6" cy="-16" r="8"/>
      <circle class="foliage-dark" cx="6" cy="-16" r="8"/>
      <circle class="foliage-light" cx="0" cy="-12" r="7"/>
    </g>
    <g transform="translate(2050, 440)">
      <rect class="trunk" x="-1.5" y="-12" width="3" height="12" rx="0.5"/>
      <circle class="foliage-light" cx="0" cy="-18" r="9"/>
      <circle class="foliage-dark" cx="-5" cy="-14" r="7"/>
      <circle class="foliage-dark" cx="5" cy="-14" r="7"/>
    </g>
  </g>
</svg>
