<svg xmlns="http://www.w3.org/2000/svg" viewBox="0 0 2400 500" preserveAspectRatio="xMidYMax slice">
  <path d="M0,410 Q300,350 600,405 T1200,400 T1800,405 T2400,400 L2400,500 L0,500 Z" fill="#4a6a38"/>
  <g>
    <g transform="translate(200, 390)">
      <rect x="-1.5" y="-14" width="3" height="14" fill="#4a3010" rx="0.5"/>
      <circle cx="0" cy="-20" r="10" fill="#3a7a2a"/>
      <circle cx="-6" cy="-16" r="8" fill="#2a6a1a"/>
      <circle cx="6" cy="-16" r="8" fill="#2a6a1a"/>
      <circle cx="0" cy="-12" r="7" fill="#3a7a2a"/>
    </g>
    <g transform="translate(400, 400)">
      <rect x="-1.5" y="-14" width="3" height="14" fill="#4a3010" rx="0.5"/>
      <circle cx="0" cy="-20" r="10" fill="#3a7a2a"/>
      <circle cx="-6" cy="-16" r="8" fill="#2a6a1a"/>
      <circle cx="6" cy="-16" r="8" fill="#2a6a1a"/>
      <circle cx="0" cy="-12" r="7" fill="#3a7a2a"/>
    </g>
    <g transform="translate(700, 450)">
      <rect x="-1.5" y="-12" width="3" height="12" fill="#4a3010" rx="0.5"/>
      <circle cx="0" cy="-18" r="9" fill="#3a7a2a"/>
      <circle cx="-5" cy="-14" r="7" fill="#2a6a1a"/>
      <circle cx="5" cy="-14" r="7" fill="#2a6a1a"/>
    </g>
    <g transform="translate(1000, 430)">
      <rect x="-1.5" y="-12" width="3" height="12" fill="#4a3010" rx="0.5"/>
      <circle cx="0" cy="-18" r="9" fill="#3a7a2a"/>
      <circle cx="-5" cy="-14" r="7" fill="#2a6a1a"/>
      <circle cx="5" cy="-14" r="7" fill="#2a6a1a"/>
    </g>
    <g transform="translate(1300, 390)">
      <rect x="-1.5" y="-14" width="3" height="14" fill="#4a3010" rx="0.5"/>
      <circle cx="0" cy="-20" r="10" fill="#3a7a2a"/>
      <circle cx="-6" cy="-16" r="8" fill="#2a6a1a"/>
      <circle cx="6" cy="-16" r="8" fill="#2a6a1a"/>
      <circle cx="0" cy="-12" r="7" fill="#3a7a2a"/>
    </g>
    <g transform="translate(1650, 390)">
      <rect x="-1.5" y="-14" width="3" height="14" fill="#4a3010" rx="0.5"/>
      <circle cx="0" cy="-20" r="10" fill="#3a7a2a"/>
      <circle cx="-6" cy="-16" r="8" fill="#2a6a1a"/>
      <circle cx="6" cy="-16" r="8" fill="#2a6a1a"/>
      <circle cx="0" cy="-12" r="7" fill="#3a7a2a"/>
    </g>
    <g transform="translate(2050, 440)">
      <rect x="-1.5" y="-12" width="3" height="12" fill="#4a3010" rx="0.5"/>
      <circle cx="0" cy="-18" r="9" fill="#3a7a2a"/>
      <circle cx="-5" cy="-14" r="7" fill="#2a6a1a"/>
      <circle cx="5" cy="-14" r="7" fill="#2a6a1a"/>
    </g>
  </g>
</svg>
