<svg xmlns="http://www.w3.org/2000/svg" viewBox="0 0 2400 500" preserveAspectRatio="xMidYMax slice">
  <defs>
    <clipPath id="hillClip">
      <path d="M0,420 Q300,360 600,415 T1200,410 T1800,415 T2400,410 L2400,500 L0,500 Z"/>
    </clipPath>
  </defs>
  <path d="M0,420 Q300,360 600,415 T1200,410 T1800,415 T2400,410 L2400,500 L0,500 Z" fill="#3a4a6a"/>
  <g>
    <g transform="translate(200, 395)">
      <rect x="-1.5" y="-12" width="3" height="12" fill="#3a2a1a" rx="0.5"/>
      <line x1="0" y1="-12" x2="-8" y2="-20" stroke="#3a2a1a" stroke-width="1.5" stroke-linecap="round"/>
      <line x1="0" y1="-12" x2="8" y2="-20" stroke="#3a2a1a" stroke-width="1.5" stroke-linecap="round"/>
      <line x1="-4" y1="-17" x2="-10" y2="-24" stroke="#3a2a1a" stroke-width="1" stroke-linecap="round"/>
      <line x1="4" y1="-17" x2="10" y2="-24" stroke="#3a2a1a" stroke-width="1" stroke-linecap="round"/>
      <line x1="-8" y1="-20" x2="-12" y2="-26" stroke="#3a2a1a" stroke-width="0.8" stroke-linecap="round"/>
      <line x1="8" y1="-20" x2="12" y2="-26" stroke="#3a2a1a" stroke-width="0.8" stroke-linecap="round"/>
    </g>
    <g transform="translate(400, 410)">
      <rect x="-1.5" y="-12" width="3" height="12" fill="#3a2a1a" rx="0.5"/>
      <line x1="0" y1="-12" x2="-8" y2="-20" stroke="#3a2a1a" stroke-width="1.5" stroke-linecap="round"/>
      <line x1="0" y1="-12" x2="8" y2="-20" stroke="#3a2a1a" stroke-width="1.5" stroke-linecap="round"/>
      <line x1="-4" y1="-17" x2="-10" y2="-24" stroke="#3a2a1a" stroke-width="1" stroke-linecap="round"/>
      <line x1="4" y1="-17" x2="10" y2="-24" stroke="#3a2a1a" stroke-width="1" stroke-linecap="round"/>
      <line x1="-8" y1="-20" x2="-12" y2="-26" stroke="#3a2a1a" stroke-width="0.8" stroke-linecap="round"/>
      <line x1="8" y1="-20" x2="12" y2="-26" stroke="#3a2a1a" stroke-width="0.8" stroke-linecap="round"/>
    </g>
    <g transform="translate(700, 440)">
      <rect x="-1.5" y="-10" width="3" height="10" fill="#3a2a1a" rx="0.5"/>
      <line x1="0" y1="-10" x2="-7" y2="-18" stroke="#3a2a1a" stroke-width="1.5" stroke-linecap="round"/>
      <line x1="0" y1="-10" x2="7" y2="-18" stroke="#3a2a1a" stroke-width="1.5" stroke-linecap="round"/>
      <line x1="-4" y1="-15" x2="-9" y2="-21" stroke="#3a2a1a" stroke-width="1" stroke-linecap="round"/>
      <line x1="4" y1="-15" x2="9" y2="-21" stroke="#3a2a1a" stroke-width="1" stroke-linecap="round"/>
    </g>
    <g transform="translate(1000, 445)">
      <rect x="-1.5" y="-10" width="3" height="10" fill="#3a2a1a" rx="0.5"/>
      <line x1="0" y1="-10" x2="-7" y2="-18" stroke="#3a2a1a" stroke-width="1.5" stroke-linecap="round"/>
      <line x1="0" y1="-10" x2="7" y2="-18" stroke="#3a2a1a" stroke-width="1.5" stroke-linecap="round"/>
      <line x1="-4" y1="-15" x2="-9" y2="-21" stroke="#3a2a1a" stroke-width="1" stroke-linecap="round"/>
      <line x1="4" y1="-15" x2="9" y2="-21" stroke="#3a2a1a" stroke-width="1" stroke-linecap="round"/>
    </g>
    <g transform="translate(1300, 395)">
      <rect x="-1.5" y="-12" width="3" height="12" fill="#3a2a1a" rx="0.5"/>
      <line x1="0" y1="-12" x2="-8" y2="-20" stroke="#3a2a1a" stroke-width="1.5" stroke-linecap="round"/>
      <line x1="0" y1="-12" x2="8" y2="-20" stroke="#3a2a1a" stroke-width="1.5" stroke-linecap="round"/>
      <line x1="-4" y1="-17" x2="-10" y2="-24" stroke="#3a2a1a" stroke-width="1" stroke-linecap="round"/>
      <line x1="4" y1="-17" x2="10" y2="-24" stroke="#3a2a1a" stroke-width="1" stroke-linecap="round"/>
      <line x1="-8" y1="-20" x2="-12" y2="-26" stroke="#3a2a1a" stroke-width="0.8" stroke-linecap="round"/>
      <line x1="8" y1="-20" x2="12" y2="-26" stroke="#3a2a1a" stroke-width="0.8" stroke-linecap="round"/>
    </g>
    <g transform="translate(1650, 400)">
      <rect x="-1.5" y="-12" width="3" height="12" fill="#3a2a1a" rx="0.5"/>
      <line x1="0" y1="-12" x2="-8" y2="-20" stroke="#3a2a1a" stroke-width="1.5" stroke-linecap="round"/>
      <line x1="0" y1="-12" x2="8" y2="-20" stroke="#3a2a1a" stroke-width="1.5" stroke-linecap="round"/>
      <line x1="-4" y1="-17" x2="-10" y2="-24" stroke="#3a2a1a" stroke-width="1" stroke-linecap="round"/>
      <line x1="4" y1="-17" x2="10" y2="-24" stroke="#3a2a1a" stroke-width="1" stroke-linecap="round"/>
      <line x1="-8" y1="-20" x2="-12" y2="-26" stroke="#3a2a1a" stroke-width="0.8" stroke-linecap="round"/>
      <line x1="8" y1="-20" x2="12" y2="-26" stroke="#3a2a1a" stroke-width="0.8" stroke-linecap="round"/>
    </g>
    <g transform="translate(2050, 450)">
      <rect x="-1.5" y="-10" width="3" height="10" fill="#3a2a1a" rx="0.5"/>
      <line x1="0" y1="-10" x2="-7" y2="-18" stroke="#3a2a1a" stroke-width="1.5" stroke-linecap="round"/>
      <line x1="0" y1="-10" x2="7" y2="-18" stroke="#3a2a1a" stroke-width="1.5" stroke-linecap="round"/>
      <line x1="-4" y1="-15" x2="-9" y2="-21" stroke="#3a2a1a" stroke-width="1" stroke-linecap="round"/>
      <line x1="4" y1="-15" x2="9" y2="-21" stroke="#3a2a1a" stroke-width="1" stroke-linecap="round"/>
    </g>
  </g>
  <g clip-path="url(#hillClip)">
    <ellipse cx="300" cy="370" rx="40" ry="10" fill="#e8ecff"/>
    <ellipse cx="1500" cy="385" rx="35" ry="8" fill="#e8ecff"/>
    <ellipse cx="400" cy="375" rx="20" ry="6" fill="#e8ecff"/>
    <ellipse cx="1300" cy="398" rx="25" ry="6" fill="#e8ecff"/>
    <ellipse cx="1700" cy="405" rx="20" ry="5" fill="#e8ecff"/>
  </g>
</svg>
