<svg xmlns="http://www.w3.org/2000/svg" viewBox="0 0 2400 500" preserveAspectRatio="xMidYMax slice">
  <defs>
    <style>
      .hill-ground   { fill: var(--hill-ground, #3a5a48); }
      .trunk         { fill: var(--trunk, #4a3010); }
      .foliage-light { fill: var(--foliage-light, #6aaa4a); }
      .foliage-dark  { fill: var(--foliage-dark, #5a9a3a); }
      .flower        { fill: var(--flower, #ffb0c8); }
      .flower-light  { fill: var(--flower-light, #ffc0d0); }
      .flower-pale   { fill: var(--flower-pale, #ffd0e0); }
      .flower-paler  { fill: var(--flower-paler, #ffe0e8); }
    </style>
  </defs>
  <path class="hill-ground" d="M0,420 Q300,360 600,415 T1200,410 T1800,415 T2400,410 L2400,500 L0,500 Z"/>
  <g>
    <g transform="translate(200, 395)">
      <rect class="trunk" x="-1.5" y="-12" width="3" height="12" rx="0.5"/>
      <circle class="foliage-light" cx="0" cy="-18" r="8"/>
      <circle class="foliage-dark" cx="-5" cy="-14" r="6"/>
      <circle class="foliage-dark" cx="5" cy="-14" r="6"/>
      <circle class="flower" cx="-3" cy="-20" r="2.5"/>
      <circle class="flower-light" cx="4" cy="-17" r="2"/>
      <circle class="flower" cx="-1" cy="-14" r="2.5"/>
    </g>
    <g transform="translate(400, 410)">
      <rect class="trunk" x="-1.5" y="-12" width="3" height="12" rx="0.5"/>
      <circle class="foliage-light" cx="0" cy="-18" r="8"/>
      <circle class="foliage-dark" cx="-5" cy="-14" r="6"/>
      <circle class="foliage-dark" cx="5" cy="-14" r="6"/>
      <circle class="flower" cx="-3" cy="-20" r="2.5"/>
      <circle class="flower-light" cx="4" cy="-17" r="2"/>
      <circle class="flower" cx="-1" cy="-14" r="2.5"/>
    </g>
    <g transform="translate(700, 460)">
      <rect class="trunk" x="-1.5" y="-10" width="3" height="10" rx="0.5"/>
      <circle class="foliage-light" cx="0" cy="-16" r="7"/>
      <circle class="foliage-dark" cx="-4" cy="-12" r="5"/>
      <circle class="foliage-dark" cx="4" cy="-12" r="5"/>
      <circle class="flower" cx="-2" cy="-18" r="2"/>
      <circle class="flower-light" cx="3" cy="-15" r="2"/>
    </g>
    <g transform="translate(1000, 450)">
      <rect class="trunk" x="-1.5" y="-10" width="3" height="10" rx="0.5"/>
      <circle class="foliage-light" cx="0" cy="-16" r="7"/>
      <circle class="foliage-dark" cx="-4" cy="-12" r="5"/>
      <circle class="foliage-dark" cx="4" cy="-12" r="5"/>
      <circle class="flower" cx="-2" cy="-18" r="2"/>
      <circle class="flower-light" cx="3" cy="-15" r="2"/>
    </g>
    <g transform="translate(1300, 395)">
      <rect class="trunk" x="-1.5" y="-12" width="3" height="12" rx="0.5"/>
      <circle class="foliage-light" cx="0" cy="-18" r="8"/>
      <circle class="foliage-dark" cx="-5" cy="-14" r="6"/>
      <circle class="foliage-dark" cx="5" cy="-14" r="6"/>
      <circle class="flower" cx="-3" cy="-20" r="2.5"/>
      <circle class="flower-light" cx="4" cy="-17" r="2"/>
      <circle class="flower" cx="-1" cy="-14" r="2.5"/>
    </g>
    <g transform="translate(1650, 400)">
      <rect class="trunk" x="-1.5" y="-12" width="3" height="12" rx="0.5"/>
      <circle class="foliage-light" cx="0" cy="-18" r="8"/>
      <circle class="foliage-dark" cx="-5" cy="-14" r="6"/>
      <circle class="foliage-dark" cx="5" cy="-14" r="6"/>
      <circle class="flower" cx="-3" cy="-20" r="2.5"/>
      <circle class="flower-light" cx="4" cy="-17" r="2"/>
      <circle class="flower" cx="-1" cy="-14" r="2.5"/>
    </g>
    <g transform="translate(2050, 450)">
      <rect class="trunk" x="-1.5" y="-10" width="3" height="10" rx="0.5"/>
      <circle class="foliage-light" cx="0" cy="-16" r="7"/>
      <circle class="foliage-dark" cx="-4" cy="-12" r="5"/>
      <circle class="foliage-dark" cx="4" cy="-12" r="5"/>
      <circle class="flower" cx="-2" cy="-18" r="2"/>
      <circle class="flower-light" cx="3" cy="-15" r="2"/>
    </g>
  </g>
  <circle class="flower-pale" cx="150" cy="420" r="2"/>
  <circle class="flower" cx="300" cy="410" r="1.5"/>
  <circle class="flower-pale" cx="550" cy="418" r="2"/>
  <circle class="flower" cx="850" cy="445" r="1.5"/>
  <circle class="flower-paler" cx="1100" cy="430" r="2"/>
  <circle class="flower" cx="1450" cy="390" r="1.5"/>
  <circle class="flower-pale" cx="1750" cy="410" r="2"/>
  <circle class="flower" cx="2150" cy="460" r="1.5"/>
  <circle class="flower-pale" cx="2350" cy="430" r="2"/>
</svg>
