<svg xmlns="http://www.w3.org/2000/svg" viewBox="0 0 2400 500" preserveAspectRatio="xMidYMax slice">
  <path d="M0,430 Q300,370 600,425 T1200,420 T1800,425 T2400,420 L2400,500 L0,500 Z" fill="#bc5b22"/>
  <g>
    <g transform="translate(200, 410)">
      <rect x="-1.5" y="-12" width="3" height="12" fill="#4a3010" rx="0.5"/>
      <circle cx="0" cy="-18" r="8" fill="#d4882a"/>
      <circle cx="-5" cy="-14" r="6" fill="#c07820"/>
      <circle cx="5" cy="-14" r="6" fill="#c07820"/>
      <circle cx="-3" cy="-10" r="3" fill="#d4882a"/>
    </g>
    <g transform="translate(400, 430)">
      <rect x="-1.5" y="-12" width="3" height="12" fill="#4a3010" rx="0.5"/>
      <circle cx="0" cy="-18" r="8" fill="#d4882a"/>
      <circle cx="-5" cy="-14" r="6" fill="#c07820"/>
      <circle cx="5" cy="-14" r="6" fill="#c07820"/>
      <circle cx="-3" cy="-10" r="3" fill="#d4882a"/>
    </g>
    <g transform="translate(700, 443)">
      <rect x="-1.5" y="-10" width="3" height="10" fill="#4a3010" rx="0.5"/>
      <circle cx="0" cy="-16" r="7" fill="#d4882a"/>
      <circle cx="-4" cy="-12" r="5" fill="#c07820"/>
      <circle cx="4" cy="-12" r="5" fill="#c07820"/>
      <circle cx="-2" cy="-8" r="2.5" fill="#d4882a"/>
    </g>
    <g transform="translate(1000, 470)">
      <rect x="-1.5" y="-10" width="3" height="10" fill="#4a3010" rx="0.5"/>
      <circle cx="0" cy="-16" r="7" fill="#d4882a"/>
      <circle cx="-4" cy="-12" r="5" fill="#c07820"/>
      <circle cx="4" cy="-12" r="5" fill="#c07820"/>
      <circle cx="-2" cy="-8" r="2.5" fill="#d4882a"/>
    </g>
    <g transform="translate(1300, 405)">
      <rect x="-1.5" y="-12" width="3" height="12" fill="#4a3010" rx="0.5"/>
      <circle cx="0" cy="-18" r="8" fill="#d4882a"/>
      <circle cx="-5" cy="-14" r="6" fill="#c07820"/>
      <circle cx="5" cy="-14" r="6" fill="#c07820"/>
      <circle cx="-3" cy="-10" r="3" fill="#d4882a"/>
    </g>
    <g transform="translate(1650, 410)">
      <rect x="-1.5" y="-12" width="3" height="12" fill="#4a3010" rx="0.5"/>
      <circle cx="0" cy="-18" r="8" fill="#d4882a"/>
      <circle cx="-5" cy="-14" r="6" fill="#c07820"/>
      <circle cx="5" cy="-14" r="6" fill="#c07820"/>
      <circle cx="-3" cy="-10" r="3" fill="#d4882a"/>
    </g>
    <g transform="translate(2050, 460)">
      <rect x="-1.5" y="-10" width="3" height="10" fill="#4a3010" rx="0.5"/>
      <circle cx="0" cy="-16" r="7" fill="#d4882a"/>
      <circle cx="-4" cy="-12" r="5" fill="#c07820"/>
      <circle cx="4" cy="-12" r="5" fill="#c07820"/>
      <circle cx="-2" cy="-8" r="2.5" fill="#d4882a"/>
    </g>
  </g>
  <circle cx="250" cy="405" r="1.5" fill="#d4882a"/>
  <circle cx="520" cy="412" r="1.5" fill="#c07820"/>
  <circle cx="850" cy="450" r="2" fill="#d4882a"/>
  <circle cx="1150" cy="429" r="1.5" fill="#c07820"/>
  <circle cx="1500" cy="392" r="1.5" fill="#d4882a"/>
  <circle cx="1850" cy="435" r="2" fill="#c07820"/>
  <circle cx="2200" cy="452" r="1.5" fill="#d4882a"/>
</svg>
