<svg xmlns="http://www.w3.org/2000/svg" viewBox="0 0 2400 500" preserveAspectRatio="xMidYMax slice">
  <defs>
    <style>
      .hill-ground   { fill: var(--hill-ground, #b39441); }
      .trunk         { fill: var(--trunk, #4a3010); }
      .foliage-light { fill: var(--foliage-light, #d4882a); }
      .foliage-dark  { fill: var(--foliage-dark, #c07820); }
    </style>
  </defs>
  <path class="hill-ground" d="M0,475 Q400,445 800,473 T1600,465 T2400,473 L2400,500 L0,500 Z"/>
  <g>
    <g transform="translate(200, 465)">
      <rect class="trunk" x="-2" y="-18" width="4" height="18" rx="1"/>
      <circle class="foliage-light" cx="0" cy="-26" r="13"/>
      <circle class="foliage-dark" cx="-8" cy="-20" r="10"/>
      <circle class="foliage-dark" cx="8" cy="-20" r="10"/>
      <circle class="foliage-light" cx="0" cy="-14" r="8"/>
      <circle class="foliage-light" cx="-3" cy="-10" r="4"/>
      <circle class="foliage-dark" cx="4" cy="-11" r="3"/>
    </g>
    <g transform="translate(550, 480)">
      <rect class="trunk" x="-2" y="-18" width="4" height="18" rx="1"/>
      <circle class="foliage-light" cx="0" cy="-26" r="13"/>
      <circle class="foliage-dark" cx="-8" cy="-20" r="10"/>
      <circle class="foliage-dark" cx="8" cy="-20" r="10"/>
      <circle class="foliage-light" cx="0" cy="-14" r="8"/>
      <circle class="foliage-light" cx="-3" cy="-10" r="4"/>
      <circle class="foliage-dark" cx="4" cy="-11" r="3"/>
    </g>
    <g transform="translate(900, 490)">
      <rect class="trunk" x="-2" y="-15" width="4" height="15" rx="1"/>
      <circle class="foliage-light" cx="0" cy="-22" r="11"/>
      <circle class="foliage-dark" cx="-7" cy="-18" r="8"/>
      <circle class="foliage-dark" cx="7" cy="-18" r="8"/>
      <circle class="foliage-light" cx="-2" cy="-10" r="3"/>
    </g>
    <g transform="translate(1250, 490)">
      <rect class="trunk" x="-2" y="-18" width="4" height="18" rx="1"/>
      <circle class="foliage-light" cx="0" cy="-26" r="13"/>
      <circle class="foliage-dark" cx="-8" cy="-20" r="10"/>
      <circle class="foliage-dark" cx="8" cy="-20" r="10"/>
      <circle class="foliage-light" cx="0" cy="-14" r="8"/>
      <circle class="foliage-light" cx="-3" cy="-10" r="4"/>
      <circle class="foliage-dark" cx="4" cy="-11" r="3"/>
    </g>
    <g transform="translate(1600, 470)">
      <rect class="trunk" x="-2" y="-18" width="4" height="18" rx="1"/>
      <circle class="foliage-light" cx="0" cy="-26" r="13"/>
      <circle class="foliage-dark" cx="-8" cy="-20" r="10"/>
      <circle class="foliage-dark" cx="8" cy="-20" r="10"/>
      <circle class="foliage-light" cx="0" cy="-14" r="8"/>
      <circle class="foliage-light" cx="-3" cy="-10" r="4"/>
      <circle class="foliage-dark" cx="4" cy="-11" r="3"/>
    </g>
    <g transform="translate(1950, 465)">
      <rect class="trunk" x="-2" y="-18" width="4" height="18" rx="1"/>
      <circle class="foliage-light" cx="0" cy="-26" r="13"/>
      <circle class="foliage-dark" cx="-8" cy="-20" r="10"/>
      <circle class="foliage-dark" cx="8" cy="-20" r="10"/>
      <circle class="foliage-light" cx="0" cy="-14" r="8"/>
      <circle class="foliage-light" cx="-3" cy="-10" r="4"/>
      <circle class="foliage-dark" cx="4" cy="-11" r="3"/>
    </g>
    <g transform="translate(2250, 470)">
      <rect class="trunk" x="-2" y="-15" width="4" height="15" rx="1"/>
      <circle class="foliage-light" cx="0" cy="-22" r="11"/>
      <circle class="foliage-dark" cx="-7" cy="-18" r="8"/>
      <circle class="foliage-dark" cx="7" cy="-18" r="8"/>
      <circle class="foliage-light" cx="-2" cy="-10" r="3"/>
    </g>
  </g>
  <circle class="foliage-light" cx="150" cy="465" r="2"/>
  <circle class="foliage-dark" cx="400" cy="458" r="2"/>
  <circle class="foliage-light" cx="750" cy="470" r="2.5"/>
  <circle class="foliage-dark" cx="1100" cy="485" r="2"/>
  <circle class="foliage-light" cx="1450" cy="475" r="2.5"/>
  <circle class="foliage-dark" cx="1800" cy="452" r="2"/>
  <circle class="foliage-light" cx="2150" cy="454" r="2"/>
</svg>
