<svg xmlns="http://www.w3.org/2000/svg" viewBox="0 0 2400 500" preserveAspectRatio="xMidYMax slice">
  <defs>
    <style>
      .hill-ground   { fill: var(--hill-ground, #446954); }
      .trunk         { fill: var(--trunk, #4a3010); }
      .foliage-light { fill: var(--foliage-light, #6aaa4a); }
      .foliage-dark  { fill: var(--foliage-dark, #5a9a3a); }
      .flower        { fill: var(--flower, #ffb0c8); }
      .flower-light  { fill: var(--flower-light, #ffc0d0); }
      .flower-pale   { fill: var(--flower-pale, #ffd0e0); }
      .flower-paler  { fill: var(--flower-paler, #ffe0e8); }
    </style>
    <g id="tree-large">
      <rect class="trunk" x="-1.5" y="-12" width="3" height="12" rx="0.5"/>
      <circle class="foliage-light" cx="0" cy="-18" r="8"/>
      <circle class="foliage-dark" cx="-5" cy="-14" r="6"/>
      <circle class="foliage-dark" cx="5" cy="-14" r="6"/>
      <circle class="flower" cx="-3" cy="-20" r="2.5"/>
      <circle class="flower-light" cx="4" cy="-17" r="2"/>
      <circle class="flower" cx="-1" cy="-14" r="2.5"/>
    </g>
    <g id="tree-small">
      <rect class="trunk" x="-1.5" y="-10" width="3" height="10" rx="0.5"/>
      <circle class="foliage-light" cx="0" cy="-16" r="7"/>
      <circle class="foliage-dark" cx="-4" cy="-12" r="5"/>
      <circle class="foliage-dark" cx="4" cy="-12" r="5"/>
      <circle class="flower" cx="-2" cy="-18" r="2"/>
      <circle class="flower-light" cx="3" cy="-15" r="2"/>
    </g>
    <g id="cluster-3">
      <circle class="flower" cx="0" cy="0" r="2.5"/>
      <circle class="flower-light" cx="-5" cy="-3" r="2"/>
      <circle class="flower-paler" cx="4" cy="-4" r="2"/>
    </g>
    <g id="cluster-4">
      <circle class="flower" cx="0" cy="0" r="2.5"/>
      <circle class="flower-light" cx="-6" cy="-2" r="2"/>
      <circle class="flower-pale" cx="5" cy="-5" r="2"/>
      <circle class="flower-paler" cx="2" cy="-7" r="1.5"/>
    </g>
    <g id="cluster-5">
      <circle class="flower" cx="0" cy="0" r="2.5"/>
      <circle class="flower-light" cx="-7" cy="-3" r="2"/>
      <circle class="flower-pale" cx="6" cy="-4" r="2"/>
      <circle class="flower-paler" cx="-3" cy="-8" r="1.5"/>
      <circle class="flower" cx="4" cy="-9" r="1.5"/>
    </g>
  </defs>
  <path class="hill-ground" d="M0,420 Q300,360 600,415 T1200,410 T1800,415 T2400,410 L2400,500 L0,500 Z"/>
  <g>
    <use href="#tree-large" x="200" y="395"/>
    <use href="#tree-large" x="400" y="410"/>
    <use href="#tree-small" x="700" y="460"/>
    <use href="#tree-small" x="1000" y="450"/>
    <use href="#tree-large" x="1300" y="395"/>
    <use href="#tree-large" x="1650" y="400"/>
    <use href="#tree-small" x="2050" y="450"/>
  </g>
  <use href="#cluster-3" x="50" y="425"/>
  <use href="#cluster-4" x="150" y="420"/>
  <use href="#cluster-3" x="300" y="410"/>
  <use href="#cluster-5" x="480" y="420"/>
  <use href="#cluster-3" x="620" y="425"/>
  <circle class="flower-light" cx="700" cy="440" r="1.5"/>
  <use href="#cluster-4" x="780" y="448"/>
  <use href="#cluster-3" x="920" y="455"/>
  <circle class="flower" cx="980" cy="452" r="2.5"/>
  <use href="#cluster-5" x="1050" y="440"/>
  <use href="#cluster-3" x="1180" y="425"/>
  <use href="#cluster-4" x="1350" y="400"/>
  <circle class="flower-pale" cx="1420" cy="395" r="2"/>
  <use href="#cluster-3" x="1450" y="390"/>
  <use href="#cluster-5" x="1600" y="405"/>
  <circle class="flower-light" cx="1680" cy="410" r="1.5"/>
  <use href="#cluster-4" x="1820" y="415"/>
  <use href="#cluster-3" x="1980" y="440"/>
  <circle class="flower-light" cx="2050" cy="455" r="1.5"/>
  <use href="#cluster-5" x="2150" y="460"/>
  <circle class="flower" cx="2300" cy="440" r="1.5"/>
  <use href="#cluster-3" x="2350" y="430"/>
</svg>
