<svg xmlns="http://www.w3.org/2000/svg" viewBox="0 0 2400 500" preserveAspectRatio="xMidYMax slice">
  <defs>
    <style>
      .hill-ground   { fill: var(--hill-ground, #af713e); }
      .trunk         { fill: var(--trunk, #4a3010); }
      .foliage-light { fill: var(--foliage-light, #d4882a); }
      .foliage-dark  { fill: var(--foliage-dark, #c07820); }
    </style>
  </defs>
  <path class="hill-ground" d="M0,430 Q300,370 600,425 T1200,420 T1800,425 T2400,420 L2400,500 L0,500 Z"/>
  <g>
    <g transform="translate(200, 410)">
      <rect class="trunk" x="-1.5" y="-12" width="3" height="12" rx="0.5"/>
      <circle class="foliage-light" cx="0" cy="-18" r="8"/>
      <circle class="foliage-dark" cx="-5" cy="-14" r="6"/>
      <circle class="foliage-dark" cx="5" cy="-14" r="6"/>
      <circle class="foliage-light" cx="-3" cy="-10" r="3"/>
    </g>
    <g transform="translate(400, 430)">
      <rect class="trunk" x="-1.5" y="-12" width="3" height="12" rx="0.5"/>
      <circle class="foliage-light" cx="0" cy="-18" r="8"/>
      <circle class="foliage-dark" cx="-5" cy="-14" r="6"/>
      <circle class="foliage-dark" cx="5" cy="-14" r="6"/>
      <circle class="foliage-light" cx="-3" cy="-10" r="3"/>
    </g>
    <g transform="translate(700, 443)">
      <rect class="trunk" x="-1.5" y="-10" width="3" height="10" rx="0.5"/>
      <circle class="foliage-light" cx="0" cy="-16" r="7"/>
      <circle class="foliage-dark" cx="-4" cy="-12" r="5"/>
      <circle class="foliage-dark" cx="4" cy="-12" r="5"/>
      <circle class="foliage-light" cx="-2" cy="-8" r="2.5"/>
    </g>
    <g transform="translate(1000, 470)">
      <rect class="trunk" x="-1.5" y="-10" width="3" height="10" rx="0.5"/>
      <circle class="foliage-light" cx="0" cy="-16" r="7"/>
      <circle class="foliage-dark" cx="-4" cy="-12" r="5"/>
      <circle class="foliage-dark" cx="4" cy="-12" r="5"/>
      <circle class="foliage-light" cx="-2" cy="-8" r="2.5"/>
    </g>
    <g transform="translate(1300, 405)">
      <rect class="trunk" x="-1.5" y="-12" width="3" height="12" rx="0.5"/>
      <circle class="foliage-light" cx="0" cy="-18" r="8"/>
      <circle class="foliage-dark" cx="-5" cy="-14" r="6"/>
      <circle class="foliage-dark" cx="5" cy="-14" r="6"/>
      <circle class="foliage-light" cx="-3" cy="-10" r="3"/>
    </g>
    <g transform="translate(1650, 410)">
      <rect class="trunk" x="-1.5" y="-12" width="3" height="12" rx="0.5"/>
      <circle class="foliage-light" cx="0" cy="-18" r="8"/>
      <circle class="foliage-dark" cx="-5" cy="-14" r="6"/>
      <circle class="foliage-dark" cx="5" cy="-14" r="6"/>
      <circle class="foliage-light" cx="-3" cy="-10" r="3"/>
    </g>
    <g transform="translate(2050, 460)">
      <rect class="trunk" x="-1.5" y="-10" width="3" height="10" rx="0.5"/>
      <circle class="foliage-light" cx="0" cy="-16" r="7"/>
      <circle class="foliage-dark" cx="-4" cy="-12" r="5"/>
      <circle class="foliage-dark" cx="4" cy="-12" r="5"/>
      <circle class="foliage-light" cx="-2" cy="-8" r="2.5"/>
    </g>
  </g>
  <circle class="foliage-light" cx="250" cy="405" r="1.5"/>
  <circle class="foliage-dark" cx="520" cy="412" r="1.5"/>
  <circle class="foliage-light" cx="850" cy="450" r="2"/>
  <circle class="foliage-dark" cx="1150" cy="429" r="1.5"/>
  <circle class="foliage-light" cx="1500" cy="392" r="1.5"/>
  <circle class="foliage-dark" cx="1850" cy="435" r="2"/>
  <circle class="foliage-light" cx="2200" cy="452" r="1.5"/>
</svg>
