<svg xmlns="http://www.w3.org/2000/svg" viewBox="0 0 2400 500" preserveAspectRatio="xMidYMax slice">
  <path d="M0,470 Q400,440 800,468 T1600,460 T2400,468 L2400,500 L0,500 Z" fill="#2a4a38"/>
  <g>
    <g transform="translate(200, 460)">
      <rect x="-2" y="-18" width="4" height="18" fill="#4a3010" rx="1"/>
      <circle cx="0" cy="-26" r="13" fill="#6aaa4a"/>
      <circle cx="-8" cy="-20" r="10" fill="#5a9a3a"/>
      <circle cx="8" cy="-20" r="10" fill="#5a9a3a"/>
      <circle cx="0" cy="-14" r="8" fill="#6aaa4a"/>
      <circle cx="-4" cy="-30" r="3" fill="#ffb0c8"/>
      <circle cx="5" cy="-24" r="3" fill="#ffc0d0"/>
      <circle cx="-3" cy="-18" r="3.5" fill="#ffb0c8"/>
      <circle cx="6" cy="-16" r="2.5" fill="#ffc0d0"/>
    </g>
    <g transform="translate(550, 460)">
      <rect x="-2" y="-18" width="4" height="18" fill="#4a3010" rx="1"/>
      <circle cx="0" cy="-26" r="13" fill="#6aaa4a"/>
      <circle cx="-8" cy="-20" r="10" fill="#5a9a3a"/>
      <circle cx="8" cy="-20" r="10" fill="#5a9a3a"/>
      <circle cx="0" cy="-14" r="8" fill="#6aaa4a"/>
      <circle cx="-4" cy="-30" r="3" fill="#ffb0c8"/>
      <circle cx="5" cy="-24" r="3" fill="#ffc0d0"/>
      <circle cx="-3" cy="-18" r="3.5" fill="#ffb0c8"/>
      <circle cx="6" cy="-16" r="2.5" fill="#ffc0d0"/>
    </g>
    <g transform="translate(900, 480)">
      <rect x="-2" y="-15" width="4" height="15" fill="#4a3010" rx="1"/>
      <circle cx="0" cy="-22" r="11" fill="#6aaa4a"/>
      <circle cx="-7" cy="-18" r="8" fill="#5a9a3a"/>
      <circle cx="7" cy="-18" r="8" fill="#5a9a3a"/>
      <circle cx="-3" cy="-26" r="2.5" fill="#ffb0c8"/>
      <circle cx="4" cy="-20" r="2.5" fill="#ffc0d0"/>
    </g>
    <g transform="translate(1250, 490)">
      <rect x="-2" y="-18" width="4" height="18" fill="#4a3010" rx="1"/>
      <circle cx="0" cy="-26" r="13" fill="#6aaa4a"/>
      <circle cx="-8" cy="-20" r="10" fill="#5a9a3a"/>
      <circle cx="8" cy="-20" r="10" fill="#5a9a3a"/>
      <circle cx="0" cy="-14" r="8" fill="#6aaa4a"/>
      <circle cx="-4" cy="-30" r="3" fill="#ffb0c8"/>
      <circle cx="5" cy="-24" r="3" fill="#ffc0d0"/>
      <circle cx="-3" cy="-18" r="3.5" fill="#ffb0c8"/>
      <circle cx="6" cy="-16" r="2.5" fill="#ffc0d0"/>
    </g>
    <g transform="translate(1600, 460)">
      <rect x="-2" y="-18" width="4" height="18" fill="#4a3010" rx="1"/>
      <circle cx="0" cy="-26" r="13" fill="#6aaa4a"/>
      <circle cx="-8" cy="-20" r="10" fill="#5a9a3a"/>
      <circle cx="8" cy="-20" r="10" fill="#5a9a3a"/>
      <circle cx="0" cy="-14" r="8" fill="#6aaa4a"/>
      <circle cx="-4" cy="-30" r="3" fill="#ffb0c8"/>
      <circle cx="5" cy="-24" r="3" fill="#ffc0d0"/>
      <circle cx="-3" cy="-18" r="3.5" fill="#ffb0c8"/>
      <circle cx="6" cy="-16" r="2.5" fill="#ffc0d0"/>
    </g>
    <g transform="translate(1950, 450)">
      <rect x="-2" y="-18" width="4" height="18" fill="#4a3010" rx="1"/>
      <circle cx="0" cy="-26" r="13" fill="#6aaa4a"/>
      <circle cx="-8" cy="-20" r="10" fill="#5a9a3a"/>
      <circle cx="8" cy="-20" r="10" fill="#5a9a3a"/>
      <circle cx="0" cy="-14" r="8" fill="#6aaa4a"/>
      <circle cx="-4" cy="-30" r="3" fill="#ffb0c8"/>
      <circle cx="5" cy="-24" r="3" fill="#ffc0d0"/>
      <circle cx="-3" cy="-18" r="3.5" fill="#ffb0c8"/>
      <circle cx="6" cy="-16" r="2.5" fill="#ffc0d0"/>
    </g>
    <g transform="translate(2250, 460)">
      <rect x="-2" y="-15" width="4" height="15" fill="#4a3010" rx="1"/>
      <circle cx="0" cy="-22" r="11" fill="#6aaa4a"/>
      <circle cx="-7" cy="-18" r="8" fill="#5a9a3a"/>
      <circle cx="7" cy="-18" r="8" fill="#5a9a3a"/>
      <circle cx="-3" cy="-26" r="2.5" fill="#ffb0c8"/>
      <circle cx="4" cy="-20" r="2.5" fill="#ffc0d0"/>
    </g>
  </g>
  <circle cx="120" cy="470" r="2.5" fill="#ffb0c8"/>
  <circle cx="350" cy="460" r="2" fill="#ffc0d0"/>
  <circle cx="650" cy="470" r="2.5" fill="#ffb0c8"/>
  <circle cx="1050" cy="480" r="2" fill="#ffc0d0"/>
  <circle cx="1400" cy="475" r="3" fill="#ffb0c8"/>
  <circle cx="1750" cy="460" r="2" fill="#ffc0d0"/>
  <circle cx="2100" cy="470" r="2.5" fill="#ffb0c8"/>
  <circle cx="2350" cy="470" r="2" fill="#ffc0d0"/>
</svg>
