<svg xmlns="http://www.w3.org/2000/svg" viewBox="0 0 2400 500" preserveAspectRatio="xMidYMax slice">
  <defs>
    <style>
      .hill-ground { fill: var(--hill-ground, #23383d); }
      .branch      { stroke: var(--branch, #3a2a1a); }
      .trunk       { fill: var(--trunk, #3a2a1a); }
      .snow        { fill: var(--snow, #e8ecff); }
    </style>
    <clipPath id="hillClip">
      <path d="M0,470 Q400,440 800,468 T1600,460 T2400,468 L2400,500 L0,500 Z"/>
    </clipPath>
  </defs>
  <path class="hill-ground" d="M0,470 Q400,440 800,468 T1600,460 T2400,468 L2400,500 L0,500 Z"/>
  <g>
    <g transform="translate(200, 460)">
      <rect class="trunk" x="-2" y="-18" width="4" height="18" rx="1"/>
      <line class="branch" x1="0" y1="-18" x2="-10" y2="-28" stroke-width="2" stroke-linecap="round"/>
      <line class="branch" x1="0" y1="-18" x2="10" y2="-28" stroke-width="2" stroke-linecap="round"/>
      <line class="branch" x1="-5" y1="-24" x2="-14" y2="-34" stroke-width="1.2" stroke-linecap="round"/>
      <line class="branch" x1="5" y1="-24" x2="14" y2="-34" stroke-width="1.2" stroke-linecap="round"/>
      <line class="branch" x1="-10" y1="-28" x2="-16" y2="-36" stroke-width="0.8" stroke-linecap="round"/>
      <line class="branch" x1="10" y1="-28" x2="16" y2="-36" stroke-width="0.8" stroke-linecap="round"/>
      <line class="branch" x1="-5" y1="-24" x2="-8" y2="-30" stroke-width="0.8" stroke-linecap="round"/>
      <line class="branch" x1="5" y1="-24" x2="8" y2="-30" stroke-width="0.8" stroke-linecap="round"/>
    </g>
    <g transform="translate(550, 460)">
      <rect class="trunk" x="-2" y="-18" width="4" height="18" rx="1"/>
      <line class="branch" x1="0" y1="-18" x2="-10" y2="-28" stroke-width="2" stroke-linecap="round"/>
      <line class="branch" x1="0" y1="-18" x2="10" y2="-28" stroke-width="2" stroke-linecap="round"/>
      <line class="branch" x1="-5" y1="-24" x2="-14" y2="-34" stroke-width="1.2" stroke-linecap="round"/>
      <line class="branch" x1="5" y1="-24" x2="14" y2="-34" stroke-width="1.2" stroke-linecap="round"/>
      <line class="branch" x1="-10" y1="-28" x2="-16" y2="-36" stroke-width="0.8" stroke-linecap="round"/>
      <line class="branch" x1="10" y1="-28" x2="16" y2="-36" stroke-width="0.8" stroke-linecap="round"/>
      <line class="branch" x1="-5" y1="-24" x2="-8" y2="-30" stroke-width="0.8" stroke-linecap="round"/>
      <line class="branch" x1="5" y1="-24" x2="8" y2="-30" stroke-width="0.8" stroke-linecap="round"/>
    </g>
    <g transform="translate(900, 480)">
      <rect class="trunk" x="-2" y="-15" width="4" height="15" rx="1"/>
      <line class="branch" x1="0" y1="-15" x2="-9" y2="-24" stroke-width="1.8" stroke-linecap="round"/>
      <line class="branch" x1="0" y1="-15" x2="9" y2="-24" stroke-width="1.8" stroke-linecap="round"/>
      <line class="branch" x1="-5" y1="-21" x2="-12" y2="-28" stroke-width="1" stroke-linecap="round"/>
      <line class="branch" x1="5" y1="-21" x2="12" y2="-28" stroke-width="1" stroke-linecap="round"/>
    </g>
    <g transform="translate(1250, 480)">
      <rect class="trunk" x="-2" y="-18" width="4" height="18" rx="1"/>
      <line class="branch" x1="0" y1="-18" x2="-10" y2="-28" stroke-width="2" stroke-linecap="round"/>
      <line class="branch" x1="0" y1="-18" x2="10" y2="-28" stroke-width="2" stroke-linecap="round"/>
      <line class="branch" x1="-5" y1="-24" x2="-14" y2="-34" stroke-width="1.2" stroke-linecap="round"/>
      <line class="branch" x1="5" y1="-24" x2="14" y2="-34" stroke-width="1.2" stroke-linecap="round"/>
      <line class="branch" x1="-10" y1="-28" x2="-16" y2="-36" stroke-width="0.8" stroke-linecap="round"/>
      <line class="branch" x1="10" y1="-28" x2="16" y2="-36" stroke-width="0.8" stroke-linecap="round"/>
      <line class="branch" x1="-5" y1="-24" x2="-8" y2="-30" stroke-width="0.8" stroke-linecap="round"/>
      <line class="branch" x1="5" y1="-24" x2="8" y2="-30" stroke-width="0.8" stroke-linecap="round"/>
    </g>
    <g transform="translate(1600, 460)">
      <rect class="trunk" x="-2" y="-18" width="4" height="18" rx="1"/>
      <line class="branch" x1="0" y1="-18" x2="-10" y2="-28" stroke-width="2" stroke-linecap="round"/>
      <line class="branch" x1="0" y1="-18" x2="10" y2="-28" stroke-width="2" stroke-linecap="round"/>
      <line class="branch" x1="-5" y1="-24" x2="-14" y2="-34" stroke-width="1.2" stroke-linecap="round"/>
      <line class="branch" x1="5" y1="-24" x2="14" y2="-34" stroke-width="1.2" stroke-linecap="round"/>
      <line class="branch" x1="-10" y1="-28" x2="-16" y2="-36" stroke-width="0.8" stroke-linecap="round"/>
      <line class="branch" x1="10" y1="-28" x2="16" y2="-36" stroke-width="0.8" stroke-linecap="round"/>
      <line class="branch" x1="-5" y1="-24" x2="-8" y2="-30" stroke-width="0.8" stroke-linecap="round"/>
      <line class="branch" x1="5" y1="-24" x2="8" y2="-30" stroke-width="0.8" stroke-linecap="round"/>
    </g>
    <g transform="translate(1950, 450)">
      <rect class="trunk" x="-2" y="-18" width="4" height="18" rx="1"/>
      <line class="branch" x1="0" y1="-18" x2="-10" y2="-28" stroke-width="2" stroke-linecap="round"/>
      <line class="branch" x1="0" y1="-18" x2="10" y2="-28" stroke-width="2" stroke-linecap="round"/>
      <line class="branch" x1="-5" y1="-24" x2="-14" y2="-34" stroke-width="1.2" stroke-linecap="round"/>
      <line class="branch" x1="5" y1="-24" x2="14" y2="-34" stroke-width="1.2" stroke-linecap="round"/>
      <line class="branch" x1="-10" y1="-28" x2="-16" y2="-36" stroke-width="0.8" stroke-linecap="round"/>
      <line class="branch" x1="10" y1="-28" x2="16" y2="-36" stroke-width="0.8" stroke-linecap="round"/>
      <line class="branch" x1="-5" y1="-24" x2="-8" y2="-30" stroke-width="0.8" stroke-linecap="round"/>
      <line class="branch" x1="5" y1="-24" x2="8" y2="-30" stroke-width="0.8" stroke-linecap="round"/>
    </g>
    <g transform="translate(2250, 460)">
      <rect class="trunk" x="-2" y="-15" width="4" height="15" rx="1"/>
      <line class="branch" x1="0" y1="-15" x2="-9" y2="-24" stroke-width="1.8" stroke-linecap="round"/>
      <line class="branch" x1="0" y1="-15" x2="9" y2="-24" stroke-width="1.8" stroke-linecap="round"/>
      <line class="branch" x1="-5" y1="-21" x2="-12" y2="-28" stroke-width="1" stroke-linecap="round"/>
      <line class="branch" x1="5" y1="-21" x2="12" y2="-28" stroke-width="1" stroke-linecap="round"/>
    </g>
  </g>
  <g clip-path="url(#hillClip)">
    <ellipse class="snow" cx="400" cy="450" rx="80" ry="12"/>
    <ellipse class="snow" cx="1600" cy="458" rx="45" ry="10"/>
    <ellipse class="snow" cx="550" cy="455" rx="30" ry="8"/>
    <ellipse class="snow" cx="1250" cy="480" rx="35" ry="8"/>
    <ellipse class="snow" cx="1950" cy="445" rx="30" ry="7"/>
  </g>
</svg>
