<svg xmlns="http://www.w3.org/2000/svg" viewBox="0 0 2400 500" preserveAspectRatio="xMidYMax slice">
  <defs>
    <style>
      .hill-ground   { fill: var(--hill-ground, #2a4a38); }
      .trunk         { fill: var(--trunk, #4a3010); }
      .foliage-light { fill: var(--foliage-light, #6aaa4a); }
      .foliage-dark  { fill: var(--foliage-dark, #5a9a3a); }
      .flower        { fill: var(--flower, #ffb0c8); }
      .flower-light  { fill: var(--flower-light, #ffc0d0); }
    </style>
    <g id="tree-large">
      <rect class="trunk" x="-2" y="-18" width="4" height="18" rx="1"/>
      <circle class="foliage-light" cx="0" cy="-26" r="13"/>
      <circle class="foliage-dark" cx="-8" cy="-20" r="10"/>
      <circle class="foliage-dark" cx="8" cy="-20" r="10"/>
      <circle class="foliage-light" cx="0" cy="-14" r="8"/>
      <circle class="flower" cx="-4" cy="-30" r="3"/>
      <circle class="flower-light" cx="5" cy="-24" r="3"/>
      <circle class="flower" cx="-3" cy="-18" r="3.5"/>
      <circle class="flower-light" cx="6" cy="-16" r="2.5"/>
    </g>
    <g id="tree-small">
      <rect class="trunk" x="-2" y="-15" width="4" height="15" rx="1"/>
      <circle class="foliage-light" cx="0" cy="-22" r="11"/>
      <circle class="foliage-dark" cx="-7" cy="-18" r="8"/>
      <circle class="foliage-dark" cx="7" cy="-18" r="8"/>
      <circle class="flower" cx="-3" cy="-26" r="2.5"/>
      <circle class="flower-light" cx="4" cy="-20" r="2.5"/>
    </g>
    <g id="cluster-3">
      <circle class="flower" cx="0" cy="0" r="2.5"/>
      <circle class="flower-light" cx="-5" cy="-3" r="2"/>
      <circle class="flower" cx="4" cy="-4" r="2"/>
    </g>
    <g id="cluster-4">
      <circle class="flower" cx="0" cy="0" r="2.5"/>
      <circle class="flower-light" cx="-6" cy="-2" r="2"/>
      <circle class="flower" cx="5" cy="-5" r="2"/>
      <circle class="flower-light" cx="2" cy="-7" r="1.5"/>
    </g>
    <g id="cluster-5">
      <circle class="flower" cx="0" cy="0" r="3"/>
      <circle class="flower-light" cx="-7" cy="-3" r="2.5"/>
      <circle class="flower" cx="6" cy="-4" r="2.5"/>
      <circle class="flower-light" cx="-3" cy="-8" r="2"/>
      <circle class="flower" cx="4" cy="-9" r="2"/>
    </g>
  </defs>
  <path class="hill-ground" d="M0,470 Q400,440 800,468 T1600,460 T2400,468 L2400,500 L0,500 Z"/>
  <g>
    <use href="#tree-large" x="200" y="460"/>
    <use href="#tree-large" x="550" y="460"/>
    <use href="#tree-small" x="900" y="480"/>
    <use href="#tree-large" x="1250" y="490"/>
    <use href="#tree-large" x="1600" y="460"/>
    <use href="#tree-large" x="1950" y="450"/>
    <use href="#tree-small" x="2250" y="460"/>
  </g>
  <use href="#cluster-3" x="60" y="475"/>
  <use href="#cluster-4" x="180" y="468"/>
  <use href="#cluster-5" x="310" y="458"/>
  <circle class="flower-light" cx="350" cy="460" r="2"/>
  <use href="#cluster-3" x="480" y="468"/>
  <circle class="flower" cx="550" cy="470" r="2"/>
  <use href="#cluster-4" x="650" y="470"/>
  <use href="#cluster-3" x="790" y="475"/>
  <circle class="flower-light" cx="850" cy="478" r="2.5"/>
  <use href="#cluster-5" x="980" y="482"/>
  <use href="#cluster-4" x="1120" y="485"/>
  <use href="#cluster-3" x="1250" y="490"/>
  <use href="#cluster-5" x="1400" y="475"/>
  <use href="#cluster-4" x="1530" y="468"/>
  <use href="#cluster-3" x="1680" y="462"/>
  <circle class="flower" cx="1750" cy="460" r="2"/>
  <use href="#cluster-5" x="1890" y="465"/>
  <use href="#cluster-4" x="2020" y="465"/>
  <circle class="flower-light" cx="2100" cy="470" r="2.5"/>
  <use href="#cluster-3" x="2180" y="472"/>
  <use href="#cluster-4" x="2300" y="472"/>
</svg>
