<svg xmlns="http://www.w3.org/2000/svg" viewBox="0 0 2400 500" preserveAspectRatio="xMidYMax slice">
  <defs>
    <style>
      .hill-ground   { fill: var(--hill-ground, #3a5a28); }
      .trunk         { fill: var(--trunk, #4a3010); }
      .foliage-light { fill: var(--foliage-light, #3a7a2a); }
      .foliage-dark  { fill: var(--foliage-dark, #2a6a1a); }
    </style>
  </defs>
  <path class="hill-ground" d="M0,465 Q400,435 800,463 T1600,455 T2400,463 L2400,500 L0,500 Z"/>
  <g>
    <g transform="translate(200, 455)">
      <rect class="trunk" x="-2.5" y="-20" width="5" height="20" rx="1"/>
      <circle class="foliage-light" cx="0" cy="-28" r="15"/>
      <circle class="foliage-dark" cx="-9" cy="-22" r="11"/>
      <circle class="foliage-dark" cx="9" cy="-22" r="11"/>
      <circle class="foliage-light" cx="0" cy="-16" r="9"/>
      <circle class="foliage-dark" cx="-5" cy="-12" r="6"/>
      <circle class="foliage-dark" cx="5" cy="-12" r="6"/>
    </g>
    <g transform="translate(550, 460)">
      <rect class="trunk" x="-2.5" y="-20" width="5" height="20" rx="1"/>
      <circle class="foliage-light" cx="0" cy="-28" r="15"/>
      <circle class="foliage-dark" cx="-9" cy="-22" r="11"/>
      <circle class="foliage-dark" cx="9" cy="-22" r="11"/>
      <circle class="foliage-light" cx="0" cy="-16" r="9"/>
      <circle class="foliage-dark" cx="-5" cy="-12" r="6"/>
      <circle class="foliage-dark" cx="5" cy="-12" r="6"/>
    </g>
    <g transform="translate(900, 480)">
      <rect class="trunk" x="-2" y="-18" width="4" height="18" rx="1"/>
      <circle class="foliage-light" cx="0" cy="-25" r="13"/>
      <circle class="foliage-dark" cx="-8" cy="-20" r="10"/>
      <circle class="foliage-dark" cx="8" cy="-20" r="10"/>
      <circle class="foliage-light" cx="0" cy="-14" r="8"/>
    </g>
    <g transform="translate(1250, 490)">
      <rect class="trunk" x="-2.5" y="-20" width="5" height="20" rx="1"/>
      <circle class="foliage-light" cx="0" cy="-28" r="15"/>
      <circle class="foliage-dark" cx="-9" cy="-22" r="11"/>
      <circle class="foliage-dark" cx="9" cy="-22" r="11"/>
      <circle class="foliage-light" cx="0" cy="-16" r="9"/>
      <circle class="foliage-dark" cx="-5" cy="-12" r="6"/>
      <circle class="foliage-dark" cx="5" cy="-12" r="6"/>
    </g>
    <g transform="translate(1600, 460)">
      <rect class="trunk" x="-2.5" y="-20" width="5" height="20" rx="1"/>
      <circle class="foliage-light" cx="0" cy="-28" r="15"/>
      <circle class="foliage-dark" cx="-9" cy="-22" r="11"/>
      <circle class="foliage-dark" cx="9" cy="-22" r="11"/>
      <circle class="foliage-light" cx="0" cy="-16" r="9"/>
      <circle class="foliage-dark" cx="-5" cy="-12" r="6"/>
      <circle class="foliage-dark" cx="5" cy="-12" r="6"/>
    </g>
    <g transform="translate(1950, 450)">
      <rect class="trunk" x="-2.5" y="-20" width="5" height="20" rx="1"/>
      <circle class="foliage-light" cx="0" cy="-28" r="15"/>
      <circle class="foliage-dark" cx="-9" cy="-22" r="11"/>
      <circle class="foliage-dark" cx="9" cy="-22" r="11"/>
      <circle class="foliage-light" cx="0" cy="-16" r="9"/>
      <circle class="foliage-dark" cx="-5" cy="-12" r="6"/>
      <circle class="foliage-dark" cx="5" cy="-12" r="6"/>
    </g>
    <g transform="translate(2250, 460)">
      <rect class="trunk" x="-2" y="-18" width="4" height="18" rx="1"/>
      <circle class="foliage-light" cx="0" cy="-25" r="13"/>
      <circle class="foliage-dark" cx="-8" cy="-20" r="10"/>
      <circle class="foliage-dark" cx="8" cy="-20" r="10"/>
      <circle class="foliage-light" cx="0" cy="-14" r="8"/>
    </g>
  </g>
</svg>
