<svg xmlns="http://www.w3.org/2000/svg" viewBox="0 0 2400 500" preserveAspectRatio="xMidYMax slice">
  <path d="M0,420 Q300,360 600,415 T1200,410 T1800,415 T2400,410 L2400,500 L0,500 Z" fill="#3a5a48"/>
  <g>
    <g transform="translate(200, 395)">
      <rect x="-1.5" y="-12" width="3" height="12" fill="#4a3010" rx="0.5"/>
      <circle cx="0" cy="-18" r="8" fill="#6aaa4a"/>
      <circle cx="-5" cy="-14" r="6" fill="#5a9a3a"/>
      <circle cx="5" cy="-14" r="6" fill="#5a9a3a"/>
      <circle cx="-3" cy="-20" r="2.5" fill="#ffb0c8"/>
      <circle cx="4" cy="-17" r="2" fill="#ffc0d0"/>
      <circle cx="-1" cy="-14" r="2.5" fill="#ffb0c8"/>
    </g>
    <g transform="translate(400, 410)">
      <rect x="-1.5" y="-12" width="3" height="12" fill="#4a3010" rx="0.5"/>
      <circle cx="0" cy="-18" r="8" fill="#6aaa4a"/>
      <circle cx="-5" cy="-14" r="6" fill="#5a9a3a"/>
      <circle cx="5" cy="-14" r="6" fill="#5a9a3a"/>
      <circle cx="-3" cy="-20" r="2.5" fill="#ffb0c8"/>
      <circle cx="4" cy="-17" r="2" fill="#ffc0d0"/>
      <circle cx="-1" cy="-14" r="2.5" fill="#ffb0c8"/>
    </g>
    <g transform="translate(700, 460)">
      <rect x="-1.5" y="-10" width="3" height="10" fill="#4a3010" rx="0.5"/>
      <circle cx="0" cy="-16" r="7" fill="#6aaa4a"/>
      <circle cx="-4" cy="-12" r="5" fill="#5a9a3a"/>
      <circle cx="4" cy="-12" r="5" fill="#5a9a3a"/>
      <circle cx="-2" cy="-18" r="2" fill="#ffb0c8"/>
      <circle cx="3" cy="-15" r="2" fill="#ffc0d0"/>
    </g>
    <g transform="translate(1000, 450)">
      <rect x="-1.5" y="-10" width="3" height="10" fill="#4a3010" rx="0.5"/>
      <circle cx="0" cy="-16" r="7" fill="#6aaa4a"/>
      <circle cx="-4" cy="-12" r="5" fill="#5a9a3a"/>
      <circle cx="4" cy="-12" r="5" fill="#5a9a3a"/>
      <circle cx="-2" cy="-18" r="2" fill="#ffb0c8"/>
      <circle cx="3" cy="-15" r="2" fill="#ffc0d0"/>
    </g>
    <g transform="translate(1300, 395)">
      <rect x="-1.5" y="-12" width="3" height="12" fill="#4a3010" rx="0.5"/>
      <circle cx="0" cy="-18" r="8" fill="#6aaa4a"/>
      <circle cx="-5" cy="-14" r="6" fill="#5a9a3a"/>
      <circle cx="5" cy="-14" r="6" fill="#5a9a3a"/>
      <circle cx="-3" cy="-20" r="2.5" fill="#ffb0c8"/>
      <circle cx="4" cy="-17" r="2" fill="#ffc0d0"/>
      <circle cx="-1" cy="-14" r="2.5" fill="#ffb0c8"/>
    </g>
    <g transform="translate(1650, 400)">
      <rect x="-1.5" y="-12" width="3" height="12" fill="#4a3010" rx="0.5"/>
      <circle cx="0" cy="-18" r="8" fill="#6aaa4a"/>
      <circle cx="-5" cy="-14" r="6" fill="#5a9a3a"/>
      <circle cx="5" cy="-14" r="6" fill="#5a9a3a"/>
      <circle cx="-3" cy="-20" r="2.5" fill="#ffb0c8"/>
      <circle cx="4" cy="-17" r="2" fill="#ffc0d0"/>
      <circle cx="-1" cy="-14" r="2.5" fill="#ffb0c8"/>
    </g>
    <g transform="translate(2050, 450)">
      <rect x="-1.5" y="-10" width="3" height="10" fill="#4a3010" rx="0.5"/>
      <circle cx="0" cy="-16" r="7" fill="#6aaa4a"/>
      <circle cx="-4" cy="-12" r="5" fill="#5a9a3a"/>
      <circle cx="4" cy="-12" r="5" fill="#5a9a3a"/>
      <circle cx="-2" cy="-18" r="2" fill="#ffb0c8"/>
      <circle cx="3" cy="-15" r="2" fill="#ffc0d0"/>
    </g>
  </g>
  <circle cx="150" cy="420" r="2" fill="#ffd0e0"/>
  <circle cx="300" cy="410" r="1.5" fill="#ffb0c8"/>
  <circle cx="550" cy="418" r="2" fill="#ffd0e0"/>
  <circle cx="850" cy="445" r="1.5" fill="#ffb0c8"/>
  <circle cx="1100" cy="430" r="2" fill="#ffe0e8"/>
  <circle cx="1450" cy="390" r="1.5" fill="#ffb0c8"/>
  <circle cx="1750" cy="410" r="2" fill="#ffd0e0"/>
  <circle cx="2150" cy="460" r="1.5" fill="#ffb0c8"/>
  <circle cx="2350" cy="430" r="2" fill="#ffd0e0"/>
</svg>
