<svg xmlns="http://www.w3.org/2000/svg" viewBox="0 0 2400 500" preserveAspectRatio="xMidYMax slice">
  <path d="M0,465 Q400,435 800,463 T1600,455 T2400,463 L2400,500 L0,500 Z" fill="#3a5a28"/>
  <g>
    <g transform="translate(200, 455)">
      <rect x="-2.5" y="-20" width="5" height="20" fill="#4a3010" rx="1"/>
      <circle cx="0" cy="-28" r="15" fill="#3a7a2a"/>
      <circle cx="-9" cy="-22" r="11" fill="#2a6a1a"/>
      <circle cx="9" cy="-22" r="11" fill="#2a6a1a"/>
      <circle cx="0" cy="-16" r="9" fill="#3a7a2a"/>
      <circle cx="-5" cy="-12" r="6" fill="#2a6a1a"/>
      <circle cx="5" cy="-12" r="6" fill="#2a6a1a"/>
    </g>
    <g transform="translate(550, 460)">
      <rect x="-2.5" y="-20" width="5" height="20" fill="#4a3010" rx="1"/>
      <circle cx="0" cy="-28" r="15" fill="#3a7a2a"/>
      <circle cx="-9" cy="-22" r="11" fill="#2a6a1a"/>
      <circle cx="9" cy="-22" r="11" fill="#2a6a1a"/>
      <circle cx="0" cy="-16" r="9" fill="#3a7a2a"/>
      <circle cx="-5" cy="-12" r="6" fill="#2a6a1a"/>
      <circle cx="5" cy="-12" r="6" fill="#2a6a1a"/>
    </g>
    <g transform="translate(900, 480)">
      <rect x="-2" y="-18" width="4" height="18" fill="#4a3010" rx="1"/>
      <circle cx="0" cy="-25" r="13" fill="#3a7a2a"/>
      <circle cx="-8" cy="-20" r="10" fill="#2a6a1a"/>
      <circle cx="8" cy="-20" r="10" fill="#2a6a1a"/>
      <circle cx="0" cy="-14" r="8" fill="#3a7a2a"/>
    </g>
    <g transform="translate(1250, 490)">
      <rect x="-2.5" y="-20" width="5" height="20" fill="#4a3010" rx="1"/>
      <circle cx="0" cy="-28" r="15" fill="#3a7a2a"/>
      <circle cx="-9" cy="-22" r="11" fill="#2a6a1a"/>
      <circle cx="9" cy="-22" r="11" fill="#2a6a1a"/>
      <circle cx="0" cy="-16" r="9" fill="#3a7a2a"/>
      <circle cx="-5" cy="-12" r="6" fill="#2a6a1a"/>
      <circle cx="5" cy="-12" r="6" fill="#2a6a1a"/>
    </g>
    <g transform="translate(1600, 460)">
      <rect x="-2.5" y="-20" width="5" height="20" fill="#4a3010" rx="1"/>
      <circle cx="0" cy="-28" r="15" fill="#3a7a2a"/>
      <circle cx="-9" cy="-22" r="11" fill="#2a6a1a"/>
      <circle cx="9" cy="-22" r="11" fill="#2a6a1a"/>
      <circle cx="0" cy="-16" r="9" fill="#3a7a2a"/>
      <circle cx="-5" cy="-12" r="6" fill="#2a6a1a"/>
      <circle cx="5" cy="-12" r="6" fill="#2a6a1a"/>
    </g>
    <g transform="translate(1950, 450)">
      <rect x="-2.5" y="-20" width="5" height="20" fill="#4a3010" rx="1"/>
      <circle cx="0" cy="-28" r="15" fill="#3a7a2a"/>
      <circle cx="-9" cy="-22" r="11" fill="#2a6a1a"/>
      <circle cx="9" cy="-22" r="11" fill="#2a6a1a"/>
      <circle cx="0" cy="-16" r="9" fill="#3a7a2a"/>
      <circle cx="-5" cy="-12" r="6" fill="#2a6a1a"/>
      <circle cx="5" cy="-12" r="6" fill="#2a6a1a"/>
    </g>
    <g transform="translate(2250, 460)">
      <rect x="-2" y="-18" width="4" height="18" fill="#4a3010" rx="1"/>
      <circle cx="0" cy="-25" r="13" fill="#3a7a2a"/>
      <circle cx="-8" cy="-20" r="10" fill="#2a6a1a"/>
      <circle cx="8" cy="-20" r="10" fill="#2a6a1a"/>
      <circle cx="0" cy="-14" r="8" fill="#3a7a2a"/>
    </g>
  </g>
</svg>
