<svg xmlns="http://www.w3.org/2000/svg" viewBox="0 0 2400 500" preserveAspectRatio="xMidYMax slice">
  <defs>
    <style>
      .hill-ground   { fill: var(--hill-ground, #2a4a38); }
      .trunk         { fill: var(--trunk, #4a3010); }
      .foliage-light { fill: var(--foliage-light, #6aaa4a); }
      .foliage-dark  { fill: var(--foliage-dark, #5a9a3a); }
      .flower        { fill: var(--flower, #ffb0c8); }
      .flower-light  { fill: var(--flower-light, #ffc0d0); }
    </style>
  </defs>
  <path class="hill-ground" d="M0,470 Q400,440 800,468 T1600,460 T2400,468 L2400,500 L0,500 Z"/>
  <g>
    <g transform="translate(200, 460)">
      <rect class="trunk" x="-2" y="-18" width="4" height="18" rx="1"/>
      <circle class="foliage-light" cx="0" cy="-26" r="13"/>
      <circle class="foliage-dark" cx="-8" cy="-20" r="10"/>
      <circle class="foliage-dark" cx="8" cy="-20" r="10"/>
      <circle class="foliage-light" cx="0" cy="-14" r="8"/>
      <circle class="flower" cx="-4" cy="-30" r="3"/>
      <circle class="flower-light" cx="5" cy="-24" r="3"/>
      <circle class="flower" cx="-3" cy="-18" r="3.5"/>
      <circle class="flower-light" cx="6" cy="-16" r="2.5"/>
    </g>
    <g transform="translate(550, 460)">
      <rect class="trunk" x="-2" y="-18" width="4" height="18" rx="1"/>
      <circle class="foliage-light" cx="0" cy="-26" r="13"/>
      <circle class="foliage-dark" cx="-8" cy="-20" r="10"/>
      <circle class="foliage-dark" cx="8" cy="-20" r="10"/>
      <circle class="foliage-light" cx="0" cy="-14" r="8"/>
      <circle class="flower" cx="-4" cy="-30" r="3"/>
      <circle class="flower-light" cx="5" cy="-24" r="3"/>
      <circle class="flower" cx="-3" cy="-18" r="3.5"/>
      <circle class="flower-light" cx="6" cy="-16" r="2.5"/>
    </g>
    <g transform="translate(900, 480)">
      <rect class="trunk" x="-2" y="-15" width="4" height="15" rx="1"/>
      <circle class="foliage-light" cx="0" cy="-22" r="11"/>
      <circle class="foliage-dark" cx="-7" cy="-18" r="8"/>
      <circle class="foliage-dark" cx="7" cy="-18" r="8"/>
      <circle class="flower" cx="-3" cy="-26" r="2.5"/>
      <circle class="flower-light" cx="4" cy="-20" r="2.5"/>
    </g>
    <g transform="translate(1250, 490)">
      <rect class="trunk" x="-2" y="-18" width="4" height="18" rx="1"/>
      <circle class="foliage-light" cx="0" cy="-26" r="13"/>
      <circle class="foliage-dark" cx="-8" cy="-20" r="10"/>
      <circle class="foliage-dark" cx="8" cy="-20" r="10"/>
      <circle class="foliage-light" cx="0" cy="-14" r="8"/>
      <circle class="flower" cx="-4" cy="-30" r="3"/>
      <circle class="flower-light" cx="5" cy="-24" r="3"/>
      <circle class="flower" cx="-3" cy="-18" r="3.5"/>
      <circle class="flower-light" cx="6" cy="-16" r="2.5"/>
    </g>
    <g transform="translate(1600, 460)">
      <rect class="trunk" x="-2" y="-18" width="4" height="18" rx="1"/>
      <circle class="foliage-light" cx="0" cy="-26" r="13"/>
      <circle class="foliage-dark" cx="-8" cy="-20" r="10"/>
      <circle class="foliage-dark" cx="8" cy="-20" r="10"/>
      <circle class="foliage-light" cx="0" cy="-14" r="8"/>
      <circle class="flower" cx="-4" cy="-30" r="3"/>
      <circle class="flower-light" cx="5" cy="-24" r="3"/>
      <circle class="flower" cx="-3" cy="-18" r="3.5"/>
      <circle class="flower-light" cx="6" cy="-16" r="2.5"/>
    </g>
    <g transform="translate(1950, 450)">
      <rect class="trunk" x="-2" y="-18" width="4" height="18" rx="1"/>
      <circle class="foliage-light" cx="0" cy="-26" r="13"/>
      <circle class="foliage-dark" cx="-8" cy="-20" r="10"/>
      <circle class="foliage-dark" cx="8" cy="-20" r="10"/>
      <circle class="foliage-light" cx="0" cy="-14" r="8"/>
      <circle class="flower" cx="-4" cy="-30" r="3"/>
      <circle class="flower-light" cx="5" cy="-24" r="3"/>
      <circle class="flower" cx="-3" cy="-18" r="3.5"/>
      <circle class="flower-light" cx="6" cy="-16" r="2.5"/>
    </g>
    <g transform="translate(2250, 460)">
      <rect class="trunk" x="-2" y="-15" width="4" height="15" rx="1"/>
      <circle class="foliage-light" cx="0" cy="-22" r="11"/>
      <circle class="foliage-dark" cx="-7" cy="-18" r="8"/>
      <circle class="foliage-dark" cx="7" cy="-18" r="8"/>
      <circle class="flower" cx="-3" cy="-26" r="2.5"/>
      <circle class="flower-light" cx="4" cy="-20" r="2.5"/>
    </g>
  </g>
  <circle class="flower" cx="120" cy="470" r="2.5"/>
  <circle class="flower-light" cx="350" cy="460" r="2"/>
  <circle class="flower" cx="650" cy="470" r="2.5"/>
  <circle class="flower-light" cx="1050" cy="480" r="2"/>
  <circle class="flower" cx="1400" cy="475" r="3"/>
  <circle class="flower-light" cx="1750" cy="460" r="2"/>
  <circle class="flower" cx="2100" cy="470" r="2.5"/>
  <circle class="flower-light" cx="2350" cy="470" r="2"/>
</svg>
