<svg xmlns="http://www.w3.org/2000/svg" viewBox="0 0 2400 500" preserveAspectRatio="xMidYMax slice">
  <defs>
    <clipPath id="frontRidge">
      <polygon points="0,370 120,300 200,230 340,350 450,200 590,350 690,240 830,360 950,210 1090,350 1190,230 1330,360 1450,220 1590,350 1690,250 1830,360 1950,230 2090,350 2190,240 2330,360 2400,310 2400,500 0,500"/>
    </clipPath>
  </defs>
  <polygon points="0,350 140,270 250,210 390,330 510,180 650,330 750,220 890,340 1030,190 1170,330 1270,210 1410,340 1550,200 1690,330 1790,230 1930,340 2070,210 2210,330 2310,220 2400,290 2400,500 0,500" fill="#4a6a2a"/>
  <polygon points="0,370 120,300 200,230 340,350 450,200 590,350 690,240 830,360 950,210 1090,350 1190,230 1330,360 1450,220 1590,350 1690,250 1830,360 1950,230 2090,350 2190,240 2330,360 2400,310 2400,500 0,500" fill="#5a8a4a"/>
</svg>
