<svg xmlns="http://www.w3.org/2000/svg" viewBox="0 0 2400 500" preserveAspectRatio="xMidYMax slice">
  <defs>
    <style>
      .mtn-back  { fill: var(--mtn-back, #416b4f); }
      .mtn-front { fill: var(--mtn-front, #3a5a3a); }
      .mtn-hl    { fill: var(--mtn-hl, #c8e0c8); }
    </style>
    <clipPath id="frontRidge">
      <polygon points="0,380 120,310 210,240 350,360 460,210 600,360 700,250 840,370 960,220 1100,360 1200,240 1340,370 1460,230 1600,360 1700,260 1840,370 1960,240 2100,360 2200,250 2340,370 2400,320 2400,500 0,500"/>
    </clipPath>
  </defs>
  <polygon class="mtn-back" points="0,360 140,280 260,220 400,340 520,190 660,340 760,230 900,350 1040,200 1180,340 1280,220 1420,350 1560,210 1700,340 1800,240 1940,350 2080,220 2220,340 2320,230 2400,300 2400,500 0,500"/>
  <polygon class="mtn-front" points="0,380 120,310 210,240 350,360 460,210 600,360 700,250 840,370 960,220 1100,360 1200,240 1340,370 1460,230 1600,360 1700,260 1840,370 1960,240 2100,360 2200,250 2340,370 2400,320 2400,500 0,500"/>
  <g clip-path="url(#frontRidge)">
    <ellipse class="mtn-hl" cx="210" cy="240" rx="50" ry="22"/>
    <ellipse class="mtn-hl" cx="460" cy="210" rx="55" ry="24"/>
    <ellipse class="mtn-hl" cx="960" cy="220" rx="55" ry="24"/>
    <ellipse class="mtn-hl" cx="1460" cy="230" rx="55" ry="24"/>
    <ellipse class="mtn-hl" cx="1960" cy="240" rx="50" ry="22"/>
  </g>
</svg>
