<svg xmlns="http://www.w3.org/2000/svg" viewBox="0 0 2400 500" preserveAspectRatio="xMidYMax slice">
  <defs>
    <clipPath id="frontRidge">
      <polygon points="0,370 120,300 200,230 340,350 450,200 590,350 690,240 830,360 950,210 1090,350 1190,230 1330,360 1450,220 1590,350 1690,250 1830,360 1950,230 2090,350 2190,240 2330,360 2400,310 2400,500 0,500"/>
    </clipPath>
  </defs>
  <polygon points="0,350 140,270 250,210 390,330 510,180 650,330 750,220 890,340 1030,190 1170,330 1270,210 1410,340 1550,200 1690,330 1790,230 1930,340 2070,210 2210,330 2310,220 2400,290 2400,500 0,500" fill="#3a4a6a"/>
  <polygon points="0,370 120,300 200,230 340,350 450,200 590,350 690,240 830,360 950,210 1090,350 1190,230 1330,360 1450,220 1590,350 1690,250 1830,360 1950,230 2090,350 2190,240 2330,360 2400,310 2400,500 0,500" fill="#4a5a7a"/>
  <g clip-path="url(#frontRidge)">
    <ellipse cx="200" cy="230" rx="80" ry="38" fill="#e8ecff"/>
    <ellipse cx="450" cy="200" rx="90" ry="42" fill="#e8ecff"/>
    <ellipse cx="950" cy="210" rx="90" ry="42" fill="#e8ecff"/>
    <ellipse cx="1450" cy="220" rx="90" ry="42" fill="#e8ecff"/>
    <ellipse cx="1950" cy="230" rx="85" ry="40" fill="#e8ecff"/>
    <polygon points="450,200 390,250 410,260 450,245 480,260 500,250" fill="#e8ecff"/>
    <polygon points="950,210 890,260 910,270 950,255 980,270 1000,260" fill="#e8ecff"/>
    <polygon points="1450,220 1400,270 1420,280 1450,265 1480,280 1500,270" fill="#e8ecff"/>
    <polygon points="450,200 390,250 410,260 450,200" fill="#e8ecff"/>
    <polygon points="950,210 890,260 910,270 950,210" fill="#e8ecff"/>
    <polygon points="1450,220 1400,270 1420,280 1450,220" fill="#e8ecff"/>
  </g>
</svg>
