<svg xmlns="http://www.w3.org/2000/svg" viewBox="0 0 2400 500" preserveAspectRatio="xMidYMax slice">
  <defs>
    <clipPath id="mountainClip">
      <polygon points="0,310 220,160 380,275 540,140 720,290 920,160 1140,310 1360,170 1560,290 1760,150 1960,280 2160,160 2400,310 2400,500 0,500"/>
    </clipPath>
  </defs>
  <polygon points="0,310 220,160 380,275 540,140 720,290 920,160 1140,310 1360,170 1560,290 1760,150 1960,280 2160,160 2400,310 2400,500 0,500" fill="#5f8a6f" opacity="0.85"/>
  <g clip-path="url(#mountainClip)">
    <ellipse cx="220" cy="160" rx="45" ry="22" fill="#a8d4a8" opacity="0.35"/>
    <ellipse cx="920" cy="160" rx="45" ry="22" fill="#a8d4a8" opacity="0.35"/>
    <ellipse cx="1760" cy="150" rx="45" ry="22" fill="#a8d4a8" opacity="0.35"/>
  </g>
</svg>
