<svg xmlns="http://www.w3.org/2000/svg" viewBox="0 0 2400 500" preserveAspectRatio="xMidYMax slice">
  <defs>
    <style>
      .mtn-back  { fill: var(--mtn-back, #4a5a7a); }
      .mtn-front { fill: var(--mtn-front, #6a7a9a); }
      .mtn-snow  { fill: var(--mtn-snow, #e8ecff); }
    </style>
    <clipPath id="frontRidge">
      <polygon points="0,360 100,280 180,155 280,270 380,130 490,290 590,150 700,275 800,110 920,280 1020,145 1140,265 1240,120 1360,290 1460,150 1570,265 1670,125 1780,280 1880,140 1990,265 2090,105 2200,280 2300,145 2400,340 2400,500 0,500"/>
    </clipPath>
  </defs>
  <polygon class="mtn-back" points="0,340 120,120 240,270 360,90 500,260 620,110 760,250 880,80 1020,250 1140,100 1280,240 1400,90 1520,260 1640,110 1760,250 1880,80 2020,250 2140,100 2280,240 2400,330 2400,500 0,500"/>
  <polygon class="mtn-front" points="0,360 100,280 180,155 280,270 380,130 490,290 590,150 700,275 800,110 920,280 1020,145 1140,265 1240,120 1360,290 1460,150 1570,265 1670,125 1780,280 1880,140 1990,265 2090,105 2200,280 2300,145 2400,340 2400,500 0,500"/>
  <g clip-path="url(#frontRidge)">
    <ellipse class="mtn-snow" cx="180" cy="155" rx="80" ry="38"/>
    <ellipse class="mtn-snow" cx="800" cy="110" rx="90" ry="42"/>
    <ellipse class="mtn-snow" cx="1240" cy="120" rx="85" ry="40"/>
    <ellipse class="mtn-snow" cx="1670" cy="125" rx="80" ry="38"/>
    <ellipse class="mtn-snow" cx="2090" cy="105" rx="90" ry="42"/>
    <polygon class="mtn-snow" points="380,120 320,190 340,200 370,185 400,200 430,190"/>
    <polygon class="mtn-snow" points="1015,140 970,200 990,210 1015,195 1040,210 1080,200"/>
    <polygon class="mtn-snow" points="1460,145 1420,200 1440,210 1460,195 1480,210 1600,200"/>
    <polygon class="mtn-snow" points="370,145 320,190 340,200 370,145"/>
    <polygon class="mtn-snow" points="1015,150 970,200 990,210 1015,150"/>
    <polygon class="mtn-snow" points="1460,155 1420,200 1440,210 1460,155"/>
  </g>
</svg>
