<svg xmlns="http://www.w3.org/2000/svg" viewBox="0 0 2400 500" preserveAspectRatio="xMidYMax slice">
  <defs>
    <clipPath id="mountainClip">
      <polygon points="0,300 200,140 380,260 560,120 760,280 960,150 1200,300 1400,160 1580,280 1760,130 1960,270 2160,150 2400,300 2400,500 0,500"/>
    </clipPath>
  </defs>
  <polygon points="0,300 200,140 380,260 560,120 760,280 960,150 1200,300 1400,160 1580,280 1760,130 1960,270 2160,150 2400,300 2400,500 0,500" fill="#6a7a9a" opacity="0.85"/>
  <g clip-path="url(#mountainClip)">
    <ellipse cx="200" cy="140" rx="90" ry="42" fill="#e8ecff" opacity="0.8"/>
    <ellipse cx="560" cy="120" rx="90" ry="42" fill="#e8ecff" opacity="0.8"/>
    <ellipse cx="960" cy="150" rx="90" ry="42" fill="#e8ecff" opacity="0.8"/>
    <ellipse cx="1400" cy="160" rx="90" ry="42" fill="#e8ecff" opacity="0.8"/>
    <ellipse cx="1760" cy="130" rx="90" ry="42" fill="#e8ecff" opacity="0.8"/>
    <ellipse cx="2160" cy="150" rx="90" ry="42" fill="#e8ecff" opacity="0.8"/>
  </g>
</svg>
