<svg xmlns="http://www.w3.org/2000/svg" viewBox="0 0 2400 500" preserveAspectRatio="xMidYMax slice">
  <defs>
    <clipPath id="mountainClip">
      <polygon points="0,360 160,230 340,340 520,200 700,350 900,250 1080,360 1200,320 1360,240 1540,350 1720,210 1900,340 2080,250 2260,360 2400,300 2400,500 0,500"/>
    </clipPath>
  </defs>
  <polygon points="0,360 160,230 340,340 520,200 700,350 900,250 1080,360 1200,320 1360,240 1540,350 1720,210 1900,340 2080,250 2260,360 2400,300 2400,500 0,500" fill="#4a5a7a"/>
  <g clip-path="url(#mountainClip)">
    <ellipse cx="160" cy="230" rx="80" ry="38" fill="#e8ecff" opacity="0.85"/>
    <ellipse cx="520" cy="200" rx="80" ry="38" fill="#e8ecff" opacity="0.85"/>
    <ellipse cx="900" cy="250" rx="80" ry="38" fill="#e8ecff" opacity="0.85"/>
    <ellipse cx="1360" cy="240" rx="80" ry="38" fill="#e8ecff" opacity="0.85"/>
    <ellipse cx="1720" cy="210" rx="80" ry="38" fill="#e8ecff" opacity="0.85"/>
  </g>
</svg>
