<svg xmlns="http://www.w3.org/2000/svg" viewBox="0 0 2400 500" preserveAspectRatio="xMidYMax slice">
  <defs>
    <style>
      .mtn-back  { fill: var(--mtn-back, #5a3a1a); }
      .mtn-front { fill: var(--mtn-front, #67482c); }
      .mtn-hl    { fill: var(--mtn-hl, #c8b080); }
    </style>
    <clipPath id="frontRidge">
      <polygon points="0,380 100,300 190,175 290,290 400,150 510,310 610,170 720,295 820,130 940,300 1040,165 1160,285 1260,140 1380,310 1480,170 1590,285 1690,145 1800,300 1900,160 2010,285 2110,125 2220,300 2320,165 2400,360 2400,500 0,500"/>
    </clipPath>
  </defs>
  <polygon class="mtn-back" points="0,360 130,140 250,290 370,110 510,280 630,130 760,270 880,100 1020,270 1140,120 1280,260 1400,110 1520,280 1640,130 1760,270 1880,100 2020,270 2140,120 2280,260 2400,350 2400,500 0,500"/>
  <polygon class="mtn-front" points="0,380 100,300 190,175 290,290 400,150 510,310 610,170 720,295 820,130 940,300 1040,165 1160,285 1260,140 1380,310 1480,170 1590,285 1690,145 1800,300 1900,160 2010,285 2110,125 2220,300 2320,165 2400,360 2400,500 0,500"/>
  <g clip-path="url(#frontRidge)">
    <ellipse class="mtn-hl" cx="190" cy="175" rx="55" ry="26"/>
    <ellipse class="mtn-hl" cx="400" cy="150" rx="65" ry="28"/>
    <ellipse class="mtn-hl" cx="820" cy="130" rx="55" ry="24"/>
    <ellipse class="mtn-hl" cx="1260" cy="140" rx="60" ry="26"/>
    <ellipse class="mtn-hl" cx="1690" cy="145" rx="55" ry="24"/>
    <ellipse class="mtn-hl" cx="2110" cy="125" rx="60" ry="28"/>
  </g>
</svg>
