<svg xmlns="http://www.w3.org/2000/svg" viewBox="0 0 2400 500" preserveAspectRatio="xMidYMax slice">
  <defs>
    <clipPath id="mountainClip">
      <polygon points="0,320 240,170 400,285 560,150 740,300 940,170 1180,320 1380,180 1580,300 1780,160 1980,290 2180,170 2400,320 2400,500 0,500"/>
    </clipPath>
  </defs>
  <polygon points="0,320 240,170 400,285 560,150 740,300 940,170 1180,320 1380,180 1580,300 1780,160 1980,290 2180,170 2400,320 2400,500 0,500" fill="#67482c" opacity="0.85"/>
  <g clip-path="url(#mountainClip)">
    <ellipse cx="240" cy="170" rx="60" ry="28" fill="#c8b080" opacity="0.4"/>
    <ellipse cx="560" cy="150" rx="60" ry="28" fill="#c8b080" opacity="0.4"/>
    <ellipse cx="940" cy="170" rx="60" ry="28" fill="#c8b080" opacity="0.4"/>
    <ellipse cx="1380" cy="180" rx="60" ry="28" fill="#c8b080" opacity="0.4"/>
    <ellipse cx="1780" cy="160" rx="60" ry="28" fill="#c8b080" opacity="0.4"/>
  </g>
</svg>
