<svg xmlns="http://www.w3.org/2000/svg" viewBox="0 0 2400 500" preserveAspectRatio="xMidYMax slice">
  <defs>
    <style>
      .mtn-back  { fill: var(--mtn-back, #5a3a12); }
      .mtn-front { fill: var(--mtn-front, #796123); }
      .mtn-hl    { fill: var(--mtn-hl, #d4c8a8); }
    </style>
    <clipPath id="frontRidge">
      <polygon points="0,390 130,320 220,250 360,370 480,220 620,370 720,260 860,380 980,230 1120,370 1220,250 1360,380 1480,240 1620,370 1720,270 1860,380 1980,250 2120,370 2220,260 2360,380 2400,330 2400,500 0,500"/>
    </clipPath>
  </defs>
  <polygon class="mtn-back" points="0,370 150,290 270,230 410,350 540,200 680,350 780,240 920,360 1060,210 1200,350 1300,230 1440,360 1580,220 1720,350 1820,250 1960,360 2100,230 2240,350 2340,240 2400,310 2400,500 0,500"/>
  <polygon class="mtn-front" points="0,390 130,320 220,250 360,370 480,220 620,370 720,260 860,380 980,230 1120,370 1220,250 1360,380 1480,240 1620,370 1720,270 1860,380 1980,250 2120,370 2220,260 2360,380 2400,330 2400,500 0,500"/>
  <g clip-path="url(#frontRidge)">
    <ellipse class="mtn-hl" cx="220" cy="250" rx="65" ry="28"/>
    <ellipse class="mtn-hl" cx="480" cy="220" rx="70" ry="30"/>
    <ellipse class="mtn-hl" cx="980" cy="230" rx="70" ry="30"/>
    <ellipse class="mtn-hl" cx="1480" cy="240" rx="70" ry="30"/>
    <ellipse class="mtn-hl" cx="1980" cy="250" rx="65" ry="28"/>
  </g>
</svg>
