<svg xmlns="http://www.w3.org/2000/svg" viewBox="0 0 2400 500" preserveAspectRatio="xMidYMax slice">
  <defs>
    <clipPath id="mountainClip">
      <polygon points="0,300 200,140 380,260 560,120 760,280 960,150 1200,300 1400,160 1580,280 1760,130 1960,270 2160,150 2400,300 2400,500 0,500"/>
    </clipPath>
  </defs>
  <polygon points="0,300 200,140 380,260 560,120 760,280 960,150 1200,300 1400,160 1580,280 1760,130 1960,270 2160,150 2400,300 2400,500 0,500" fill="#7a9a5a" opacity="0.85"/>
</svg>
